PathFileType	4	(X/Y/Z)	RBDS014\RBDS014runT25.trc
DataRate	CameraRate	NumFrames	NumMarkers	Units	OrigDataRate	OrigDataStartFrame	OrigNumFrames
150.000000	150.000000	6	33	mm	150.000000	562	4500
Frame#	Time	L.ASIS			L.Heel.Bottom			L.Heel.Lateral			L.Heel.Top			L.Iliac.Crest			L.MT1			L.MT5			L.PSIS			L.Shank.Bottom.Lateral			L.Shank.Bottom.Medial			L.Shank.Top.Lateral			L.Shank.Top.Medial			L.Thigh.Bottom.Lateral			L.Thigh.Bottom.Medial			L.Thigh.Top.Lateral			L.Thigh.Top.Medial			R.ASIS			R.ASY			R.Heel.Bottom			R.Heel.Lateral			R.Heel.Top			R.Iliac.Crest			R.MT1			R.MT5			R.PSIS			R.Shank.Bottom.Lateral			R.Shank.Bottom.Medial			R.Shank.Top.Lateral			R.Shank.Top.Medial			R.Thigh.Bottom.Lateral			R.Thigh.Bottom.Medial			R.Thigh.Top.Lateral			R.Thigh.Top.Medial			
		X1	Y1	Z1	X2	Y2	Z2	X3	Y3	Z3	X4	Y4	Z4	X5	Y5	Z5	X6	Y6	Z6	X7	Y7	Z7	X8	Y8	Z8	X9	Y9	Z9	X10	Y10	Z10	X11	Y11	Z11	X12	Y12	Z12	X13	Y13	Z13	X14	Y14	Z14	X15	Y15	Z15	X16	Y16	Z16	X17	Y17	Z17	X18	Y18	Z18	X19	Y19	Z19	X20	Y20	Z20	X21	Y21	Z21	X22	Y22	Z22	X23	Y23	Z23	X24	Y24	Z24	X25	Y25	Z25	X26	Y26	Z26	X27	Y27	Z27	X28	Y28	Z28	X29	Y29	Z29	X30	Y30	Z30	X31	Y31	Z31	X32	Y32	Z32	X33	Y33	Z33	

563	3.746666666666667	2112.203558092682	1076.772864796721	951.0512075412973	1677.249372984859	62.35551949632242	1044.376767551493	1701.920741295429	77.91144486537084	1001.169202752771	1694.913881136759	110.3428099774007	1041.331375012985	2053.905324119126	1137.28211408529	912.1981173126359	1910.925686743672	46.8503165507086	1082.029475103199	1865.456442334959	40.28411783926591	966.3145832400095	1936.384599838131	1094.105256597559	1031.572330039472	1812.401232902279	201.2057604848033	968.520340087473	1773.783882329178	226.470842778309	999.9401602081366	1840.33408582498	273.1238847937581	945.9428528591269	1803.382036308941	298.3652399831798	976.7062752503564	2016.463006037301	693.3299507139902	897.3815411933288	1956.2887896967	693.157690283794	937.9994271411123	2004.796528553457	802.5530483562922	886.0846691134954	1950.64517051365	803.3564178538695	928.3961032383671	2125.903580858608	1074.804980994197	1192.694637078407	1999.116984653013	207.2944849197297	1143.60422937005	1814.93984312264	293.6440368004413	1118.088117072585	1845.196969134236	297.9792387907429	1158.282433875406	1856.165017633045	325.0303459459453	1115.783782088814	2064.462262471752	1147.125905863415	1220.921174676623	1997.016172366193	145.7465596118797	1098.30981624544	1960.275564091183	171.2356070482945	1211.105863902549	1948.610719806398	1099.184175369061	1123.072930806627	1979.150625843248	372.5868396743144	1174.638255916393	1963.774761524869	396.5908699880186	1131.958693808295	2037.966441148095	433.1210199006028	1185.309620190531	2017.423906226391	456.2780884783436	1141.958039070975	2249.133746085442	713.2742597400534	1214.905300621846	2191.391509525124	676.3192673110922	1188.255125862594	2181.863958682974	797.144900446114	1236.57988456565	2126.859108331912	762.1203257502042	1211.440915642205	
564	3.753333333333333	2113.889385109453	1080.46963998427	950.8436300324155	1662.058717018521	68.72535007780793	1043.805469826411	1687.143538917263	83.09170464166097	1000.428676657402	1680.92225248953	116.1490148728702	1040.239643263168	2057.284217836675	1142.225558087776	912.9138657697582	1894.50784701474	46.78713288701198	1081.771931965068	1849.006327115353	40.57548904026822	966.1972289326652	1938.208734752829	1099.328470165875	1031.345221375754	1798.278259222567	205.9372330111465	967.8355623309535	1759.797655972915	231.1080191482893	999.4721259471658	1826.393980763514	277.8930272315073	945.5602569750548	1789.433097244025	303.0472983173651	976.4208022117635	2008.349502480008	697.4457719405837	897.9260091790109	1948.339649490901	699.0590311849957	938.8174334476697	1999.752876481156	806.8911261649635	886.5246018021834	1945.731027165463	809.3603491088957	928.9732515185581	2127.593105488637	1080.258196014729	1192.172845401705	2021.765677923617	200.8942577960837	1142.918749242585	1833.186118904032	276.5398767499145	1116.624470817398	1863.029663103024	282.6489066344321	1156.84445694782	1872.654776724446	310.2696723500017	1114.363723177441	2065.349593708359	1152.645020472476	1220.724738273671	2023.530469254428	139.3602447630086	1097.767141740784	1984.965652463575	162.8255894402522	1210.359588514405	1950.035362054175	1104.900965952506	1122.988317187426	1993.118639775662	364.3144307471935	1173.559981207792	1976.533186731795	387.6684696416278	1130.965383808988	2048.638029248601	427.8679492571025	1184.581676729222	2027.008137594712	450.0542270128099	1141.2904649936	2252.549233417955	721.1168582849685	1214.271907663098	2194.930969596951	683.3647590918009	1188.484714339859	2184.440866935911	804.2410682380572	1236.485959858957	2129.605713325691	768.509505949881	1211.910425793296	
565	3.76	2115.758880869852	1084.188317871454	950.6909680868717	1647.253921286283	75.70730708825346	1043.180286067467	1672.756760199988	88.79614688530407	999.6458426494559	1667.428379891335	122.4678392895193	1039.103094248336	2060.662565346608	1147.326227662685	913.748035525663	1878.301383188998	46.70084175580553	1081.454792985124	1832.704887385616	40.92608707802159	966.0028862177296	1940.243513804405	1104.695987151597	1031.089067028734	1784.5428165707	211.0387885849681	967.0267946081083	1746.265540583857	236.0844270584098	998.9691424071445	1812.855901200267	283.061444746765	945.1216533913231	1775.92947515034	308.0909039337816	976.1444546404033	2000.61703198861	701.8033429170374	898.3398230702351	1940.791875842321	705.1432548170466	939.4534689531886	1995.050131711768	811.3765440771086	886.9018830067215	1941.187407547573	815.465019289594	929.4384600721963	2129.361285059975	1085.825793245033	1191.743861762473	2044.810902845094	194.6439901960281	1142.188064077606	1852.399834067578	259.1602304539183	1114.785361072478	1881.646899802787	267.0647830903617	1155.062345433382	1889.945868065989	295.1691001604452	1112.599171898718	2066.291310463728	1158.246136846705	1220.593409063608	2050.550342706047	133.3205708933673	1097.231740033414	2010.048928696327	154.6630239602201	1209.546952161366	1951.63893327882	1110.74732402179	1122.881878706107	2007.362458493541	355.7133435929005	1172.314150532414	1989.635486689356	378.3199856941181	1129.769170533563	2059.350972768035	422.1866873552135	1183.734886738265	2036.736740714403	443.2908284656025	1140.455477925773	2255.300966553715	728.5354559661214	1213.62043037969	2197.747247333932	690.1302577498918	1188.682399966513	2186.56167543461	811.0842357386091	1236.362649978785	2131.855972702721	774.8015346817828	1212.296783555176	
566	3.766666666666667	2117.794774244356	1087.874088801923	950.6167749222298	1632.880562038629	83.25626448690059	1042.488351216526	1658.799069491196	94.99214194028004	998.8154928142792	1654.462596624686	129.2501717454596	1037.921837082656	2064.036065579683	1152.494069645647	914.6835066035028	1862.332145237368	46.61081817352596	1081.088060494277	1816.585197013645	41.37804898088394	965.7251910590375	1942.467569121229	1110.138845668888	1030.804067322723	1771.220506095461	216.4778777260199	966.0933390201532	1733.225190949176	241.3645019175957	998.4387908449061	1799.746240506799	288.5952895246636	944.6297825026295	1762.909854108983	313.4612218187147	975.8908902865358	1993.275947827689	706.3482328920295	898.6091585432188	1933.667554036014	711.3505909976643	939.9110697785267	1990.684029357045	815.959859178283	887.2077473723273	1937.02045828064	821.6090205079203	929.8058333046919	2131.172622535755	1091.429279381198	1191.411461097899	2068.226505773737	188.6086403298848	1141.391432205389	1872.592640449452	241.636774517223	1112.602657854131	1901.063287309766	251.33092132726	1152.965828107517	1908.047373229211	279.8391996049151	1110.51975892514	2067.293499776592	1163.870112327549	1220.519017698939	2078.006058443534	127.7045147089166	1096.668944966808	2035.489768479982	146.803296604551	1208.64989243314	1953.407505354751	1116.660111920741	1122.746455614493	2021.90411460039	346.831072581537	1170.916811517849	2003.10795186976	368.5994903388697	1128.386408607308	2070.13833077998	416.0921157109553	1182.779657112571	2046.651824126855	436.0158316267053	1139.460180340039	2257.358717809024	735.4100023441908	1212.947138082741	2199.792773222588	696.5111177202456	1188.844208891594	2188.212157944435	817.570947634072	1236.204362329679	2133.580039688392	780.9079013673305	1212.598008687905	
567	3.773333333333333	2119.973490942307	1091.478232290463	950.6373582975586	1618.982678479387	91.32544553283032	1041.713067438782	1645.309788956271	101.6473108405723	997.92910183118	1642.050767441767	136.4483573500111	1036.692758487536	2067.402673164466	1157.626525421852	915.693737134425	1846.616850060646	46.55229187661299	1080.682720397206	1800.683012314375	41.98156745196057	965.3619025881527	1944.853564727411	1115.579517261662	1030.489812754096	1758.339764637891	222.219376957493	965.0403220980904	1720.709225513437	246.9109442041302	997.8853093020304	1787.091535253769	294.4562097653319	944.0888964279228	1750.409225808733	319.1201829170871	975.6692458801906	1986.32762341842	711.0320448296152	898.7357539291653	1926.980215572999	717.6313828868023	940.2112296503316	1986.64308191885	820.601317786503	887.43911756232	1933.231382093416	827.7423020703902	930.1005131415786	2132.993943796734	1096.981970748612	1191.171620249878	2091.971527257983	182.856010801693	1140.496584206112	1893.749326785465	224.1086023686685	1110.129339967179	1921.278353970494	235.5561607458839	1150.603816664418	1926.947284492071	264.3982863903142	1108.177159144097	2068.368399884841	1169.456672498968	1220.485635589414	2105.805437119746	122.5916294856856	1096.022036830751	2061.255701007432	139.298038173113	1207.636325987197	1955.322845182568	1122.569103458017	1122.574540380055	2036.758258392215	337.7210570123779	1169.394353065387	2016.964222665258	358.5727766817804	1126.848502467273	2081.030420707548	409.603296791882	1181.738880920481	2056.785524017085	428.2694888271573	1138.329903898667	2258.703537561919	741.6265619044652	1212.259728096382	2201.033337602736	702.407214053577	1188.976393910447	2189.389243221274	823.6007021023315	1236.014051891467	2134.758435399975	786.7400068533318	1212.824306731633	
568	3.78	2122.265938931158	1094.960058472114	950.7597445567045	1605.601707829197	99.8701051481216	1040.83660004039	1632.327798191694	108.7328925516094	996.9766408125225	1630.214358260819	144.020048568758	1035.411557080736	2070.75942212254	1162.61774656458	916.7445713710135	1831.163442591653	46.57690418918726	1080.249658590707	1785.03597843835	42.79225834269093	964.9155910118327	1947.368183952545	1120.935372098789	1030.145234652185	1745.933935557698	228.2267571515311	963.8798072307145	1708.745697119739	252.6875683564221	997.3098332892631	1774.921077835339	300.6021754108735	943.5044939340885	1738.460365381763	325.0285224114238	975.482799023982	1979.770471595548	715.8139045727168	898.7359217173973	1920.739132570715	723.9464808815704	940.3889883745954	1982.914334122238	825.2714105040716	887.5978161841684	1929.819977028879	833.827081462102	930.3540385084027	2134.795251049055	1102.392678362774	1191.014064783359	2115.986657111613	177.4559153858293	1139.462069649965	1915.825398402896	206.7210940741711	1107.437830499099	1942.274673680974	219.8544387729238	1148.043065865427	1946.610005302707	248.9717339266448	1105.644080540059	2069.529482388999	1174.945133197722	1220.472210287507	2133.830288368909	118.064035301238	1095.215247522241	2087.314957669791	132.1974000463804	1206.461838028536	1957.361422701787	1128.397927142963	1122.359042819363	2051.928064390158	328.4442359800112	1167.783025537961	2031.202324368132	348.3178586248328	1125.20066259294	2092.051806949631	402.7455498188509	1180.647234093291	2067.15679303314	420.1046814448814	1137.107765405141	2259.330615605661	747.082867866494	1211.579927815942	2201.453852626028	707.7269104970075	1189.095317623527	2190.100813768798	829.0797094675513	1235.804117804638	2135.38484331795	792.2113214158732	1212.996048016723	
